<svg xmlns="http://www.w3.org/2000/svg" viewBox="0 0 512 512">
  <path d="M512 256c0 141.387-114.613 256-256 256S0 397.387 0 256 114.613 0 256 0s256 114.613 256 256zm0 0" fill="#4a7aff"/>
  <path d="M128.816 416.871l-25.96 7.074 76.316 76.317a254.512 254.512 0 0042.469 9.437zm0 0M511.945 260.238l-91.968-91.968-9.266 8.511L328.18 94.25 98.55 279.031l32.759 32.754-23.145 29.098 33.93 33.93-16.922 14.476 53.11 53.11-7.473 6.507 62.043 62.04A257.673 257.673 0 00256 512c139.969 0 253.68-112.332 255.945-251.762zm0 0" fill="#2864f0"/>
  <path d="M318.957 218.793l10.828-16.816 15.133 9.742-10.824 16.816zm0 0M208.254 423.992l-15.133-9.742 19.973-31.027 15.136 9.742zm31.46-48.867l-15.132-9.742 19.977-31.028 15.132 9.743zm31.462-48.867l-15.133-9.742 19.977-31.028 15.132 9.742zm31.46-48.867l-15.132-9.743 19.976-31.027 15.133 9.742zm0 0" fill="#fff"/>
  <path d="M193.11 414.258l19.972-31.028 15.137 9.743L208.242 424zm0 0" fill="#fff"/>
  <path d="M256.031 316.504l19.973-31.024 15.137 9.743-19.977 31.027zm0 0" fill="#e9edf5"/>
  <path d="M287.492 267.645l19.973-31.028 15.137 9.742-19.977 31.028zm0 0" fill="#fff"/>
  <path d="M255.645 341.492v8.895l4.046-6.29zm0 0" fill="#e9edf5"/>
  <g fill="#fff">
    <path d="M170.793 448.914l10.828-16.816 15.133 9.742-10.824 16.816zm0 0M251 193.816L261.828 177l15.133 9.746-10.824 16.813zm0 0M140.305 399.031l-15.137-9.742 19.977-31.027 15.132 9.746zm31.46-48.867l-15.136-9.742 19.976-31.027 15.133 9.746zm31.462-48.867l-15.137-9.742 19.976-31.028 15.133 9.746zm31.46-48.863l-15.136-9.746 19.976-31.028 15.133 9.746zm0 0M102.848 423.934l10.828-16.817 15.133 9.742-10.825 16.817zm0 0M396.168 229.375l10.828-16.816 15.133 9.742-10.824 16.816zm0 0"/>
  </g>
  <path d="M285.465 434.57l-15.137-9.742 19.977-31.027 15.136 9.742zm31.46-48.867l-15.136-9.742 19.977-31.027 15.136 9.746zm31.462-48.867l-15.133-9.742 19.973-31.028 15.136 9.743zm31.46-48.867l-15.132-9.742 19.973-31.028 15.136 9.742zm0 0" fill="#e9edf5"/>
  <path d="M248.004 459.496l10.828-16.816 15.133 9.742-10.824 16.816zm0 0" fill="#fff"/>
  <path d="M273.98 452.41l-15.136-9.742-3.2 4.973v16.754l7.508 4.832zm0 0" fill="#e9edf5"/>
  <path d="M359.457 306.938c45.59 0 82.543-36.958 82.543-82.543 0-45.586-36.953-82.543-82.543-82.543-2.227 0-4.434.09-6.617.265-8.594-44.414-47.676-77.953-94.598-77.953-36.543 0-68.332 20.344-84.668 50.316a98.06 98.06 0 00-7.215-.265c-53.218 0-96.359 43.14-96.359 96.36s43.14 96.363 96.36 96.363zm0 0" fill="#fff"/>
  <path d="M359.457 141.852c-2.227 0-4.434.09-6.617.265-8.594-44.414-47.676-77.953-94.598-77.953-.87 0-1.734.023-2.597.047v242.726h103.812c45.586 0 82.543-36.957 82.543-82.542 0-45.586-36.953-82.543-82.543-82.543zm0 0" fill="#e9edf5"/>
  <path d="M230.504 278.008l41.164-145.492-92.61 92.609-29.734-29.734-41.16 145.496 92.606-92.61zm0 0" fill="#fdba12"/>
  <path d="M193.332 210.848v44.867l7.438-7.438 29.734 29.73 41.164-145.491zm0 0" fill="#ffa300"/>
  <path d="M248.004 459.496l10.828-16.816 15.133 9.742-10.824 16.816zm0 0" fill="#fff"/>
</svg>
