<svg xmlns="http://www.w3.org/2000/svg" viewBox="0 0 512 512">
  <path fill="#4a7aff" d="M512 256c0 141.387-114.613 256-256 256S0 397.387 0 256 114.613 0 256 0s256 114.613 256 256zm0 0"/>
  <path fill="#2864f0" d="M510.168 286.633L332.492 108.957 300.2 127.711 228.99 56.5l-23.137 44.348L313.285 208.28l-42.078 36.809L150.07 123.953l-16.363 16.363L253.754 260.36l-42.082 36.809-101.07-101.07-44.348 23.14 109.422 109.418-62.844 54.973 127.91 127.906c5.051.297 10.133.465 15.258.465 131.016 0 239.027-98.426 254.168-225.367zm0 0"/>
  <path fill="#fdba12" d="M310.645 207.668c0 51.484-41.739 93.223-93.223 93.223-51.488 0-93.223-41.739-93.223-93.223 0-51.488 41.735-93.223 93.223-93.223 51.484 0 93.223 41.735 93.223 93.223zm0 0"/>
  <path fill="#ffa300" d="M217.422 114.445h-.238v186.442c.078 0 .156.004.238.004 51.484 0 93.223-41.739 93.223-93.223 0-51.488-41.739-93.223-93.223-93.223zm0 0"/>
  <path fill="#fcda15" d="M279.637 207.668c0 34.36-27.856 62.215-62.215 62.215s-62.215-27.856-62.215-62.215c0-34.363 27.856-62.215 62.215-62.215s62.215 27.852 62.215 62.215zm0 0"/>
  <path fill="#efc820" d="M217.422 145.453c-.082 0-.16.004-.238.004v124.418c.078 0 .156.008.238.008 34.36 0 62.215-27.856 62.215-62.215 0-34.363-27.856-62.215-62.215-62.215zm0 0"/>
  <path fill="#fdba12" d="M205.852 56.5h23.136v44.348h-23.136zm0 0"/>
  <path fill="#ffa300" d="M217.184 56.5h11.804v44.348h-11.804zm0 0"/>
  <path fill="#fdba12" d="M205.852 314.484h23.136v44.348h-23.136zm0 0"/>
  <path fill="#ffa300" d="M368.586 196.098v23.136h-44.344v-23.136zm0 0"/>
  <path fill="#fdba12" d="M110.602 196.098v23.136H66.254v-23.136zm0 0"/>
  <path fill="#ffa300" d="M316.129 92.594l16.363 16.36-31.36 31.359-16.359-16.364zm0 0"/>
  <g fill="#fdba12">
    <path d="M133.707 275.016l16.363 16.363-31.36 31.355-16.358-16.359zm0 0M102.348 108.957l16.359-16.363 31.36 31.36-16.36 16.359zm0 0M284.77 291.379l16.359-16.36 31.36 31.356-16.36 16.363zm0 0"/>
  </g>
  <path fill="#fff" d="M358.934 411.445c42.71 0 77.332-34.625 77.332-77.336s-34.621-77.336-77.332-77.336c-2.09 0-4.157.086-6.204.25-8.05-41.609-44.668-73.035-88.628-73.035-34.239 0-64.024 19.059-79.329 47.145a89.986 89.986 0 00-6.757-.254c-49.864 0-90.282 40.422-90.282 90.285 0 49.86 40.418 90.281 90.282 90.281zm0 0"/>
  <path fill="#e9edf5" d="M358.934 256.773c-2.09 0-4.157.086-6.204.25-8.05-41.613-44.667-73.035-88.628-73.035-.258 0-.512.012-.766.012v227.445h95.598c42.71 0 77.332-34.625 77.332-77.336s-34.621-77.336-77.332-77.336zm0 0"/>
</svg>
