<svg xmlns="http://www.w3.org/2000/svg" viewBox="0 0 512 512">
  <path d="M512 256c0 141.387-114.613 256-256 256S0 397.387 0 256 114.613 0 256 0s256 114.613 256 256zm0 0" fill="#4a7aff"/>
  <path d="M265.219 511.816c136.664-4.84 246.05-116.785 246.765-254.46l-95.488-95.489-7.168 10.547-89.465-89.465-216.152 189.254 81.504 81.508-34.41 43.691zm0 0" fill="#2864f0"/>
  <path d="M357.305 297.715c44.636 0 80.824-36.184 80.824-80.824 0-44.637-36.188-80.825-80.824-80.825-2.184 0-4.344.09-6.485.262C342.406 92.84 304.14 60 258.195 60c-35.78 0-66.91 19.918-82.906 49.27a96.075 96.075 0 00-7.062-.262c-52.11 0-94.356 42.242-94.356 94.351 0 52.114 42.246 94.356 94.356 94.356zm0 0" fill="#fff"/>
  <path d="M357.305 136.07c-2.184 0-4.344.086-6.485.258C342.406 92.84 304.14 60 258.195 60c-.855 0-1.703.023-2.55.043v237.672h101.66c44.636 0 80.824-36.184 80.824-80.82 0-44.641-36.188-80.825-80.824-80.825zm0 0" fill="#e9edf5"/>
  <path d="M381 313.727c0 21.523-17.45 38.972-38.973 38.972s-38.972-17.449-38.972-38.972c0-21.524 38.972-70.993 38.972-70.993S381 292.204 381 313.727zm0 0" fill="#80dbff"/>
  <path d="M216.145 368.71c0 21.524-17.45 38.974-38.973 38.974s-38.973-17.45-38.973-38.973c0-21.524 38.973-70.992 38.973-70.992s38.973 49.468 38.973 70.992zm0 0M310.64 436.672c0 21.523-17.449 38.973-38.976 38.973-21.523 0-38.973-17.45-38.973-38.973s38.973-70.992 38.973-70.992 38.977 49.468 38.977 70.992zm0 0" fill="#96e8ff"/>
  <path d="M310.64 436.672c0-21.059-37.3-68.856-38.913-70.914v109.887c21.496-.036 38.914-17.47 38.914-38.973zm0 0" fill="#80dbff"/>
</svg>
