<svg xmlns="http://www.w3.org/2000/svg" viewBox="0 0 512 512">
  <path d="M512 256c0 141.387-114.613 256-256 256S0 397.387 0 256 114.613 0 256 0s256 114.613 256 256zm0 0" fill="#4a7aff"/>
  <path d="M259.195 511.96c139.465-1.71 252.075-114.925 252.79-254.632l-95.813-95.808-10.527 7.468-76.829-76.832L102.45 271l51.446 51.785.457 5.817L144.75 319l-3.922 16.563L114.75 349l13.535 13.535-2.676 2.68 51.899 51.898-4.633 3.172 13.535 13.535-2.676 2.676zm0 0" fill="#2864f0"/>
  <path d="M357.305 297.715c44.636 0 80.824-36.184 80.824-80.824 0-44.637-36.188-80.825-80.824-80.825-2.184 0-4.344.09-6.485.262C342.406 92.84 304.14 60 258.195 60c-35.78 0-66.91 19.918-82.906 49.27a96.075 96.075 0 00-7.062-.262c-52.11 0-94.356 42.242-94.356 94.351 0 52.114 42.246 94.356 94.356 94.356zm0 0" fill="#fff"/>
  <path d="M357.305 136.07c-2.184 0-4.344.086-6.485.258C342.406 92.84 304.14 60 258.195 60c-.855 0-1.703.023-2.55.043v237.672h101.66c44.636 0 80.824-36.184 80.824-80.824 0-44.637-36.188-80.82-80.824-80.82zm0 0M397.25 339h-12.93l9.145-9.14-7.074-7.075-9.141 9.145V319h-10v12.93l-9.14-9.145-7.075 7.074L360.18 339h-12.93v10h12.93l-9.145 9.14 7.074 7.075 9.141-9.145V369h10v-12.93l9.14 9.145 7.075-7.074L384.32 349h12.93zm0 0" fill="#e9edf5"/>
  <path d="M164.75 339h-12.93l9.145-9.14-7.074-7.075-9.141 9.145V319h-10v12.93l-9.14-9.145-7.075 7.074L127.68 339h-12.93v10h12.93l-9.145 9.14 7.074 7.075 9.141-9.145V369h10v-12.93l9.14 9.145 7.075-7.074L151.82 349h12.93zm0 0M281 339h-12.93l9.145-9.14-7.074-7.075L261 331.93V319h-10v12.93l-9.14-9.145-7.075 7.074L243.93 339H231v10h12.93l-9.145 9.14 7.074 7.075L251 356.07V369h10v-12.93l9.14 9.145 7.075-7.074L268.07 349H281zm0 0" fill="#fff"/>
  <path d="M281 339h-12.93l9.145-9.14-7.074-7.075L261 331.93V319h-5.355v50H261v-12.93l9.14 9.145 7.075-7.074L268.07 349H281zm0 0" fill="#e9edf5"/>
  <path d="M222.875 410.285h-12.93l9.145-9.144-7.074-7.07-9.141 9.14v-12.926h-10v12.926l-9.14-9.14-7.075 7.07 9.145 9.14h-12.93v10h12.93l-9.145 9.145 7.074 7.07 9.141-9.14v12.93h10v-12.93l9.14 9.14 7.075-7.07-9.145-9.14h12.93zm0 0" fill="#fff"/>
  <path d="M339.125 410.285h-12.93l9.145-9.144-7.074-7.07-9.141 9.14v-12.926h-10v12.926l-9.14-9.14-7.075 7.07 9.145 9.14h-12.93v10h12.93l-9.145 9.145 7.074 7.07 9.141-9.14v12.93h10v-12.93l9.14 9.14 7.075-7.07-9.145-9.14h12.93zm0 0" fill="#e9edf5"/>
</svg>
