<svg xmlns="http://www.w3.org/2000/svg" viewBox="0 0 512 512">
  <path fill="#4a7aff" d="M255.602 0C114.398.2 0 114.7 0 256c0 141.398 114.602 256 256 256s256-114.602 256-256S397.398 0 256 0h-.398"/>
  <path fill="#2864f0" d="M138.8 483.7c35.098 18.1 75 28.3 117.2 28.3 141.398 0 256-114.602 256-256 0-5-.2-9.898-.398-14.8l-95-95-33.102 14.402-71.898-71.903-135 196.2-107 6.3 31.296 31.301-62.5 10.7 76 76-42.199 8zm0 0"/>
  <path fill="#414952" d="M94.102 454.3C138.199 490.399 194.602 512 256 512c19.102 0 37.7-2.102 55.602-6.102V88.801h-217.5zm0 0"/>
  <path fill="#333940" d="M202.5 88.8v417.598C219.8 510.102 237.7 512 256 512c19.102 0 37.7-2.102 55.602-6.102V88.801zm0 0"/>
  <path fill="#65b1fc" d="M111.3 110.898h84.598v53.704h-84.597zm0 0"/>
  <path fill="#4a98f7" d="M209.7 110.898h84.6v53.704h-84.6zm0 0"/>
  <path fill="#65b1fc" d="M111.3 182h84.598v53.7h-84.597zm0 0"/>
  <path fill="#4a98f7" d="M209.7 182h84.6v53.7h-84.6zm0 0"/>
  <path fill="#65b1fc" d="M111.3 253.102h84.598V306.8h-84.597zm0 0"/>
  <path fill="#4a98f7" d="M209.7 253.102h84.6V306.8h-84.6zm0 0"/>
  <path fill="#65b1fc" d="M111.3 324.2h84.598v53.698h-84.597zm0 0"/>
  <path fill="#4a98f7" d="M209.7 324.2h84.6v53.698h-84.6zm0 0"/>
  <path fill="#65b1fc" d="M111.3 391.7h84.598v53.698h-84.597zm0 0"/>
  <path fill="#4a98f7" d="M209.7 391.7h84.6v53.698h-84.6zm0 0"/>
  <path fill="#fff" d="M179.602 146.2h237v19h-237zm0 0M196 188.2h246.398v19H196zm0 0M94.102 230.2H452v19H94.102zm0 0"/>
  <g fill="#e9edf5">
    <path d="M69.7 272.2h376.198v19H69.7zm0 0M38.5 314.2H425v19H38.5zm0 0M115.7 356.2h286v19h-286zm0 0M72.3 398.2h301.302v19H72.3zm0 0"/>
  </g>
</svg>
