<svg xmlns="http://www.w3.org/2000/svg" viewBox="0 0 512 512">
  <path fill="#4a7aff" d="M512 256c0 141.387-114.613 256-256 256S0 397.387 0 256 114.613 0 256 0s256 114.613 256 256zm0 0"/>
  <path fill="#2864f0" d="M273.14 511.414c125.075-8.27 225.59-106.351 237.637-230.355L435 205.28l-7.227 11.973-98.824-98.824L82.934 321.21zm0 0"/>
  <path fill="#fff" d="M368.078 354c49.387 0 89.418-40.035 89.418-89.422 0-49.383-40.031-89.418-89.418-89.418a90.79 90.79 0 00-7.172.285C351.598 127.335 309.262 91 258.43 91c-39.586 0-74.028 22.035-91.727 54.508a105.51 105.51 0 00-7.812-.29c-57.653 0-104.391 46.735-104.391 104.391C54.504 307.262 101.238 354 158.89 354zm0 0"/>
  <path fill="#e9edf5" d="M368.078 175.16a90.79 90.79 0 00-7.172.285C351.598 127.335 309.262 91 258.43 91c-.817 0-1.621.023-2.43.043V354h112.078c49.387 0 89.418-40.035 89.418-89.422 0-49.383-40.031-89.418-89.418-89.418zm0 0"/>
</svg>
