<svg xmlns="http://www.w3.org/2000/svg" viewBox="0 0 512 512">
  <path d="M413.383 124.25h-69.405c-5.271-26.62-19.277-50.899-39.89-68.92a123.358 123.358 0 00-81.222-30.479C154.787 24.851 99.4 80.237 99.4 148.316v9.067H82.05c-45.242 0-82.05 36.808-82.05 82.05s36.808 82.05 82.05 82.05h29.551c4.143 0 7.5-3.357 7.5-7.5s-3.357-7.5-7.5-7.5H82.05c-36.972 0-67.05-30.078-67.05-67.05s30.078-67.05 67.05-67.05h74.55c4.143 0 7.5-3.357 7.5-7.5s-3.357-7.5-7.5-7.5h-42.2v-9.067c0-59.809 48.657-108.466 108.466-108.466 53.348 0 99.297 39.558 107.233 92.148a108.806 108.806 0 011.233 16.317c0 10.555-1.511 20.983-4.491 30.995a7.5 7.5 0 1014.378 4.279 123.554 123.554 0 005.114-35.274c0-3.05-.125-6.071-.343-9.066h67.393c46.106 0 83.617 37.511 83.617 83.617s-37.511 83.616-83.617 83.616H141.6c-4.143 0-7.5 3.357-7.5 7.5s3.357 7.5 7.5 7.5h271.783c54.378 0 98.617-44.239 98.617-98.616s-44.239-98.616-98.617-98.616zM90.333 404.316c-17.838 0-32.35-14.512-32.35-32.35s14.512-32.35 32.35-32.35 32.35 14.512 32.35 32.35-14.512 32.35-32.35 32.35zm0-49.699c-9.566 0-17.35 7.783-17.35 17.35s7.783 17.35 17.35 17.35 17.35-7.783 17.35-17.35-7.784-17.35-17.35-17.35zM256 404.316c-17.838 0-32.35-14.512-32.35-32.35s14.512-32.35 32.35-32.35 32.35 14.512 32.35 32.35-14.512 32.35-32.35 32.35zm0-49.699c-9.566 0-17.35 7.783-17.35 17.35s7.783 17.35 17.35 17.35 17.35-7.783 17.35-17.35-7.784-17.35-17.35-17.35zM338.833 487.149c-17.838 0-32.35-14.512-32.35-32.35s14.512-32.35 32.35-32.35 32.35 14.512 32.35 32.35-14.512 32.35-32.35 32.35zm0-49.699c-9.566 0-17.35 7.783-17.35 17.35s7.783 17.35 17.35 17.35 17.35-7.783 17.35-17.35-7.784-17.35-17.35-17.35zM173.166 487.149c-17.838 0-32.35-14.512-32.35-32.35s14.512-32.35 32.35-32.35 32.351 14.512 32.351 32.35-14.513 32.35-32.351 32.35zm0-49.699c-9.566 0-17.35 7.783-17.35 17.35s7.783 17.35 17.35 17.35 17.351-7.783 17.351-17.35-7.784-17.35-17.351-17.35zM421.666 404.316c-17.838 0-32.35-14.512-32.35-32.35s14.512-32.35 32.35-32.35 32.351 14.512 32.351 32.35-14.513 32.35-32.351 32.35zm0-49.699c-9.566 0-17.35 7.783-17.35 17.35s7.783 17.35 17.35 17.35 17.351-7.783 17.351-17.35-7.784-17.35-17.351-17.35z"/>
</svg>
