<svg xmlns="http://www.w3.org/2000/svg" viewBox="0 0 513.627 450.147">
  <path d="M323.081 0a7.5 7.5 0 00-7.5 7.5v33.135a7.5 7.5 0 1015 0V7.5a7.5 7.5 0 00-7.5-7.5zm-63.365 29.135a7.5 7.5 0 00-6.975 10.414l6.34 15.306a7.5 7.5 0 006.932 4.631c5.345-.001 8.972-5.433 6.925-10.37l-6.34-15.307a7.504 7.504 0 00-6.882-4.674zm126.722.04a7.504 7.504 0 00-6.876 4.634l-6.34 15.306a7.5 7.5 0 006.925 10.371 7.503 7.503 0 006.932-4.63l6.34-15.307a7.5 7.5 0 00-4.059-9.799 7.462 7.462 0 00-2.922-.574zM194.212 53.392a7.5 7.5 0 00-5.309 12.781l23.428 23.43a7.474 7.474 0 005.303 2.195c6.681 0 10.027-8.078 5.303-12.803l-23.428-23.43a7.478 7.478 0 00-5.297-2.173zm257.707.09a7.479 7.479 0 00-5.277 2.107l-23.428 23.43c-4.724 4.724-1.379 12.802 5.303 12.802a7.482 7.482 0 005.302-2.197l23.43-23.428a7.501 7.501 0 00-5.33-12.715zM322.79 65.34a123.48 123.48 0 00-123.48 123.48A123.48 123.48 0 00322.79 312.3a123.48 123.48 0 00123.48-123.48A123.48 123.48 0 00322.79 65.34zm-152.85 53.512a7.502 7.502 0 00-6.875 4.632 7.5 7.5 0 004.059 9.8l15.305 6.339a7.468 7.468 0 002.867.574 7.5 7.5 0 002.873-14.431l-15.305-6.34a7.468 7.468 0 00-2.924-.574zm306.284.002a7.5 7.5 0 00-2.926.572l-15.307 6.338a7.5 7.5 0 002.873 14.431 7.49 7.49 0 002.867-.572l15.305-6.338a7.5 7.5 0 00-2.812-14.431zm-4.043 63.412a7.5 7.5 0 00-7.5 7.5 7.5 7.5 0 007.5 7.5h33.132a7.5 7.5 0 007.5-7.5 7.5 7.5 0 00-7.5-7.5zm-11.371 57.068a7.505 7.505 0 00-6.88 4.63 7.5 7.5 0 004.061 9.802l15.305 6.34a7.468 7.468 0 002.867.572 7.5 7.5 0 002.873-14.432l-15.305-6.34a7.46 7.46 0 00-2.921-.572z" fill="#ffc300"/>
  <path d="M224.898 153.127A123.119 123.119 0 00101.78 276.244a123.119 123.119 0 00.346 9.012H80.811v.068A82.44 82.44 0 000 367.707a82.44 82.44 0 0080.81 82.357v.073h1.434a82.44 82.44 0 00.195.01 82.44 82.44 0 00.278-.01h334.242v-.016a96.93 98.784 0 0096.668-98.775 96.93 98.784 0 00-96.79-98.776v-.004h-.064a96.93 98.784 0 00-.076-.004 96.93 98.784 0 00-.107.004h-70.983a123.119 123.119 0 00-120.709-99.44z" fill="#fff"/>
</svg>
