<?xml version="1.0" encoding="UTF-8" standalone="no"?>
<svg
   xmlns:dc="http://purl.org/dc/elements/1.1/"
   xmlns:cc="http://creativecommons.org/ns#"
   xmlns:rdf="http://www.w3.org/1999/02/22-rdf-syntax-ns#"
   xmlns:svg="http://www.w3.org/2000/svg"
   xmlns="http://www.w3.org/2000/svg"
   id="svg8"
   version="1.1"
   viewBox="0 0 8.3302412 9.9999008"
   height="9.9999008mm"
   width="8.3302412mm">
  <defs
     id="defs2" />
  <metadata
     id="metadata5">
    <rdf:RDF>
      <cc:Work
         rdf:about="">
        <dc:format>image/svg+xml</dc:format>
        <dc:type
           rdf:resource="http://purl.org/dc/dcmitype/StillImage" />
        <dc:title></dc:title>
      </cc:Work>
    </rdf:RDF>
  </metadata>
  <g
     transform="translate(0,-287.00005)"
     id="layer1">
    <path
       id="path819"
       transform="scale(0.26458333)"
       d="M 18.898438,1084.7246 A 18.897638,18.897638 0 0 0 0,1103.6211 a 18.897638,18.897638 0 0 0 18.898438,18.8984 18.897638,18.897638 0 0 0 12.585937,-4.83 l -3.478516,-3.4786 a 13.984252,13.984252 0 0 1 -9.107421,3.3946 13.984252,13.984252 0 0 1 -13.9843755,-13.9844 13.984252,13.984252 0 0 1 13.9843755,-13.9824 13.984252,13.984252 0 0 1 9.113281,3.3867 l 3.470703,-3.4707 a 18.897638,18.897638 0 0 0 -12.583984,-4.8301 z"
       style="fill:#ffffff;fill-rule:evenodd;stroke-width:1.51181102" />
    <rect
       transform="rotate(-45)"
       y="207.81226"
       x="-205.07501"
       height="3.999742"
       width="0.51996648"
       id="rect857-9"
       style="fill:#ffffff;fill-opacity:1;fill-rule:nonzero;stroke:none;stroke-width:0;stroke-linecap:square;stroke-linejoin:miter;stroke-miterlimit:4;stroke-dasharray:none;stroke-dashoffset:0;stroke-opacity:1" />
    <path
       id="rect855-4-1"
       d="m 2.2384614,291.65251 -0.095295,0.51037 2.8565683,0.53301 0.2522616,-0.25226 -0.2819234,-0.28192 1.496e-4,-1.5e-4 0.2819235,0.28192 0.252261,-0.25226 -0.5330187,-2.85657 -0.5103656,0.0953 -5.939e-4,5.9e-4 0.5096367,2.73088 -2.7310247,-0.50949 z"
       style="fill:#ffffff;fill-opacity:1;fill-rule:nonzero;stroke:none;stroke-width:0;stroke-linecap:square;stroke-linejoin:miter;stroke-miterlimit:4;stroke-dasharray:none;stroke-dashoffset:0;stroke-opacity:1" />
    <rect
       transform="matrix(-0.70710678,0.70710678,0.70710678,0.70710678,0,0)"
       y="207.81226"
       x="201.07501"
       height="3.999742"
       width="0.51996648"
       id="rect857-8-3"
       style="fill:#ffffff;fill-opacity:1;fill-rule:nonzero;stroke:none;stroke-width:0;stroke-linecap:square;stroke-linejoin:miter;stroke-miterlimit:4;stroke-dasharray:none;stroke-dashoffset:0;stroke-opacity:1" />
  </g>
</svg>
