<svg xmlns="http://www.w3.org/2000/svg" viewBox="0 0 8.33 10">
  <g fill="#fff">
    <path d="M5 0a5 5 0 00-5 5 5 5 0 005 5 5 5 0 003.33-1.278l-.92-.92A3.7 3.7 0 015 8.7 3.7 3.7 0 011.3 5 3.7 3.7 0 015 1.3a3.7 3.7 0 012.411.896l.919-.918A5 5 0 005 0z" fill-rule="evenodd"/>
    <path d="M1.935 4.955l.368-.368 2.828 2.829-.367.368z"/>
    <path d="M2.238 4.652l-.095.51L5 5.697l.252-.252-.282-.282.282.281.252-.252-.533-2.856-.51.095.51 2.731-2.732-.51z"/>
    <path d="M4.764 2.127l-.368.367 2.829 2.829.367-.368z"/>
  </g>
</svg>
