<svg xmlns="http://www.w3.org/2000/svg" viewBox="0 0 4268.712 4268.712">
  <path d="M3657.2 0S2138.143 2130.398 2137.352 2131.365c.968-.794 2131.36-1519.992 2131.36-1519.992v579.876s-2128.874 942.146-2129.954 942.553c1.077-.176 2129.953-242.818 2129.953-242.818v488.414s-2128.876-242.605-2129.953-242.781c1.077.404 2129.953 942.513 2129.953 942.513v579.885s-2130.391-1519.17-2131.359-1519.958c.794.964 1518.979 2129.655 1518.979 2129.655h-579.849s-941.16-2127.175-941.567-2128.25c.176 1.075 242.736 2128.25 242.736 2128.25h-488.305s242.581-2127.178 242.755-2128.25c-.405 1.078-941.586 2128.25-941.586 2128.25H610.664s1518.21-2128.69 1519-2129.655C2128.697 2139.845 0 3658.08 0 3658.08v-579.876s2127.182-941.184 2128.259-941.588C2127.188 2136.793 0 2379.362 0 2379.362v-488.308s2127.188 242.575 2128.262 242.751C2127.185 2133.398 0 1192.36 0 1192.36V612.38s2128.7 1518.191 2129.668 1518.985C2128.873 2130.401 609.572 0 609.572 0h580.07s942.055 2128.883 942.46 2129.963C2131.925 2128.889 1889.189 0 1889.189 0h488.463s-242.56 2128.886-242.736 2129.96C2135.32 2128.883 3077.44 0 3077.44 0H3657.2z" fill="#fff" fill-opacity=".12" fill-rule="evenodd"/>
</svg>
