<svg xmlns="http://www.w3.org/2000/svg" viewBox="0 0 481.89 407.062">
  <path d="M342.73 313.073c16.567 0 29.997-13.43 29.997-29.997v123.327H333.3v-93.33z" fill="#d88a55"/>
  <path d="M372.727 283.076v123.327h-20V311.36c11.651-4.118 20-15.223 20-28.284z" fill="#c57a44"/>
  <path d="M125.784 313.073H86.356v93.33h39.428z" fill="#d88a55"/>
  <path d="M125.784 313.073h-20v93.33h20z" fill="#c57a44"/>
  <path d="M125.784 375.153H86.356v31.25h39.428z" fill="#32569d"/>
  <path d="M125.784 375.153h-20v31.25h20z" fill="#303a78"/>
  <path d="M77.495 69.191h151.373c6.987 8.482 17.55 13.7 28.902 13.7 3.932 0 7.822-.616 11.562-1.832l1.31-.425v51.24c0 14.033 3.863 27.769 11.162 39.793a36.751 36.751 0 00-1.842 11.486v2.786c0 20.389 16.682 37.071 37.071 37.071h55.695v60.066c0 16.567-13.43 29.997-29.997 29.997h-38.859c-5.522 0-9.999 4.477-9.999 9.999v83.331h-39.428v-83.331c0-5.522-4.477-9.999-9.999-9.999H56.93c-5.522 0-9.999 4.477-9.999 9.999v83.331H7.502V139.185c0-38.657 31.336-69.994 69.993-69.994z" fill="#ea9b58"/>
  <path d="M342.727 283.076V223.01h30v60.066c0 16.567-13.43 29.997-29.997 29.997h-30c16.567 0 29.997-13.43 29.997-29.997z" fill="#d88a55"/>
  <path d="M379.713 45.512V20.556c0-7.181 5.876-13.057 13.057-13.057h.981c7.181 0 13.057 5.876 13.057 13.057v24.956zm-90.963 0V20.556c0-7.181 5.876-13.057 13.057-13.057h.981c7.181 0 13.057 5.876 13.057 13.057v24.956z" fill="#e7b795"/>
  <path d="M231.2 45.512h38.441v36.499a38.345 38.345 0 01-11.872 1.881c-16.504 0-30.574-10.417-35.996-25.034-2.4-6.476 2.521-13.346 9.427-13.346zm194.717 0h38.441c6.907 0 11.828 6.87 9.426 13.346-5.422 14.617-19.492 25.034-35.996 25.034a38.32 38.32 0 01-11.872-1.881V45.512z" fill="#f6a96c"/>
  <path d="M453.784 58.857c2.402-6.476-2.52-13.346-9.427-13.346h20c6.907 0 11.828 6.87 9.427 13.346-5.422 14.617-19.492 25.034-35.996 25.034-3.459 0-6.808-.465-9.996-1.323 12.02-3.237 21.708-12.159 25.992-23.711z" fill="#ea9b58"/>
  <path d="M425.917 45.512v86.363c0 15.045-4.322 29.124-11.767 41.081-4.459-15.469-18.77-26.872-35.624-26.872h-61.494c-16.854 0-31.165 11.403-35.624 26.872-7.446-11.957-11.767-26.036-11.767-41.081V45.512z" fill="#d88a55"/>
  <path d="M393.902 149.453a77.59 77.59 0 002.015-17.579V45.512h30v86.363c0 15.045-4.322 29.124-11.767 41.081-3.01-10.442-10.507-19.024-20.248-23.503z" fill="#c57a44"/>
  <path d="M317.032 223.01h61.494c20.39 0 37.071-16.682 37.071-37.071v-2.786c0-20.389-16.682-37.071-37.07-37.071h-61.495c-20.389 0-37.07 16.682-37.07 37.071v2.786c0 20.39 16.681 37.071 37.07 37.071z" fill="#edcab2"/>
  <path d="M393.597 185.94v-2.786c0-20.389-16.682-37.071-37.07-37.071h22c20.388 0 37.07 16.682 37.07 37.071v2.786c0 20.389-16.682 37.071-37.07 37.071h-22c20.388-.001 37.07-16.683 37.07-37.071z" fill="#e7b795"/>
  <path d="M372.727 375.153H333.3v31.25h39.428z" fill="#32569d"/>
  <path d="M372.727 375.153h-20v31.25h20z" fill="#303a78"/>
  <path d="M46.93 375.153H7.5v31.25h39.43z" fill="#32569d"/>
  <path d="M46.93 375.153h-20v31.25h20z" fill="#303a78"/>
  <path d="M293.872 375.153h-39.428v31.25h39.428z" fill="#32569d"/>
  <path d="M293.872 375.153h-20v31.25h20z" fill="#303a78"/>
  <path d="M301.808 0c-11.336 0-20.559 9.221-20.559 20.556v17.456h-50.048a17.573 17.573 0 00-14.416 7.539c-3.244 4.665-4.008 10.616-2.041 15.916.028.076.06.15.087.224H77.495C34.766 61.691.003 96.455.003 139.185v95.891c.05-5.22 14.756.714 15-4.5v-91.39c0-34.46 28.033-62.495 62.492-62.495h146.659c8.53 9.155 20.655 14.7 33.617 14.7 1.477 0 2.932-.097 4.373-.235v5.295a7.5 7.5 0 007.5 7.5 7.5 7.5 0 007.5-7.5v-43.44h141.273v78.864a70.124 70.124 0 01-4.365 24.396c-8.146-10.739-21.037-17.69-35.525-17.69h-61.494c-14.488 0-27.378 6.952-35.524 17.69a70.123 70.123 0 01-4.367-24.396 7.5 7.5 0 00-7.5-7.5 7.5 7.5 0 00-7.5 7.5c0 15.379 4.1 29.806 11.23 42.29a44.602 44.602 0 00-.912 8.99v2.784c0 24.577 19.996 44.573 44.573 44.573h48.195v52.564c0 12.406-10.093 22.498-22.498 22.498h-38.86c-9.649 0-17.498 7.85-17.498 17.498v44.58h-24.427v-44.58c0-9.649-7.851-17.498-17.5-17.498h-86.971c-11.04 1.728-6.319 14.755 1.75 15h85.22c1.379 0 2.5 1.12 2.5 2.498v83.882c18.944-.01 31.427-.025 54.426-.032v-83.85c0-1.378 1.122-2.5 2.5-2.5h21.928v78.33h-.004v8.014c18.189-.004 33.411-.012 54.434-.012V230.468c23.79-.898 42.87-20.523 42.87-44.529v-2.785c0-3.078-.314-6.084-.911-8.988 7.13-12.484 11.23-26.912 11.23-42.291V91.158a45.41 45.41 0 004.371.234c19.097 0 36.389-12.026 43.028-29.925 1.966-5.3 1.203-11.25-2.041-15.914a17.575 17.575 0 00-14.416-7.541H414.31V20.556C414.31 9.221 405.087 0 393.751 0h-.98c-11.336 0-20.559 9.221-20.559 20.556v17.456h-48.865V20.556C323.347 9.221 314.124 0 302.788 0zm0 15h.98a5.564 5.564 0 015.559 5.556h-.002v17.456H296.25V20.556A5.565 5.565 0 01301.808 15zm90.963 0h.978a5.564 5.564 0 015.559 5.556v17.456h-12.096V20.556A5.565 5.565 0 01392.771 15zM231.2 53.011h30.94v23.064a30.77 30.77 0 01-4.372.316c-12.856 0-24.495-8.095-28.963-20.142-.343-.924-.029-1.668.293-2.131.232-.333.899-1.107 2.102-1.107zm202.216 0h30.942c1.204 0 1.87.772 2.101 1.105.322.463.635 1.209.293 2.13-4.469 12.05-16.11 20.143-28.965 20.143a30.89 30.89 0 01-4.37-.316zM317.033 153.584h61.494c16.305 0 29.57 13.265 29.57 29.57v2.785c0 16.305-13.264 29.573-29.57 29.573h-61.494c-16.305 0-29.573-13.268-29.573-29.573v-2.785c0-16.305 13.267-29.57 29.573-29.57zM0 225.285v181.617c19.57.09 36.625.137 54.432.158-.005-28.878-.004-59.09-.004-83.988 0-1.378 1.122-2.5 2.5-2.5h21.928v86.49c14.671.001 35.346-.02 54.428-.035v-86.453h51.273c11.04-1.728 8.069-14.755 0-15H56.929c-9.649 0-17.5 7.85-17.5 17.498v44.58H15.001V225.285c-1.774-45.471-14.11-44.79-15 0zm365.227 87.77v54.596h-24.43v-47.078h1.932a37.303 37.303 0 0022.498-7.52zm-271.371 7.52h24.428v47.076H93.856zM15 382.651h24.43v16.25H15.001zm78.856 0h24.428v16.25H93.856zm168.088 0h24.427v16.25h-24.427zm78.855 0h24.428v16.25H340.8z"/>
  <path d="M388.447 101.008v15.078a7.5 7.5 0 01-7.5 7.5 7.5 7.5 0 01-7.5-7.5v-15.078a7.5 7.5 0 017.5-7.5 7.5 7.5 0 017.5 7.5zm-66.336 0v15.078a7.5 7.5 0 01-7.5 7.5 7.5 7.5 0 01-7.5-7.5v-15.078a7.5 7.5 0 017.5-7.5 7.5 7.5 0 017.5 7.5zm45.666 72.445h12a7.5 7.5 0 017.5 7.5 7.5 7.5 0 01-7.5 7.5h-12a7.5 7.5 0 010-15zm-59.495 7.5a7.5 7.5 0 017.5-7.5h12a7.5 7.5 0 017.5 7.5 7.5 7.5 0 01-7.5 7.5h-12a7.499 7.499 0 01-7.5-7.5z"/>
</svg>
