<svg xmlns="http://www.w3.org/2000/svg" viewBox="0 0 379.818 377.646">
  <path d="M190.086 0a7.5 7.5 0 00-7.5 7.5v33.135a7.5 7.5 0 0015 0V7.5a7.5 7.5 0 00-7.5-7.5zm-63.363 29.135a7.5 7.5 0 00-6.977 10.414l6.34 15.306a7.5 7.5 0 006.934 4.631c5.345 0 8.97-5.434 6.923-10.37l-6.34-15.307a7.504 7.504 0 00-6.88-4.674zm126.72.04a7.504 7.504 0 00-6.875 4.634l-6.34 15.306a7.5 7.5 0 006.924 10.371 7.503 7.503 0 006.932-4.63l6.342-15.307a7.5 7.5 0 00-4.06-9.799 7.462 7.462 0 00-2.923-.574zM61.22 53.394a7.5 7.5 0 00-5.31 12.78l23.427 23.43A7.474 7.474 0 0084.64 91.8c6.68 0 10.026-8.08 5.302-12.805l-23.427-23.43a7.478 7.478 0 00-5.297-2.171zm257.707.087v.002a7.479 7.479 0 00-5.278 2.108l-23.427 23.43c-4.724 4.724-1.38 12.8 5.302 12.8a7.482 7.482 0 005.301-2.197l23.43-23.428a7.501 7.501 0 00-5.328-12.715zM189.795 65.34A123.48 123.48 0 0066.316 188.82 123.48 123.48 0 00189.795 312.3a123.48 123.48 0 00123.48-123.48 123.48 123.48 0 00-123.48-123.48zm-152.85 53.512a7.502 7.502 0 00-6.875 4.632 7.5 7.5 0 004.059 9.8l15.307 6.34a7.468 7.468 0 002.867.573 7.5 7.5 0 002.873-14.431l-15.307-6.34a7.468 7.468 0 00-2.924-.574zm306.285.002a7.5 7.5 0 00-2.925.572l-15.309 6.338a7.5 7.5 0 002.873 14.431 7.49 7.49 0 002.867-.572l15.305-6.338a7.5 7.5 0 00-2.81-14.431zM7.5 180.38a7.5 7.5 0 100 15h33.133a7.5 7.5 0 100-15zm331.688 1.885a7.5 7.5 0 00-7.5 7.5 7.5 7.5 0 007.5 7.5h33.13a7.5 7.5 0 007.5-7.5 7.5 7.5 0 00-7.5-7.5zM51.949 237.45c-.984 0-1.958.195-2.867.572l-15.305 6.338c-7.56 3.125-5.37 14.374 2.81 14.432a7.51 7.51 0 002.929-.572l15.306-6.338c7.59-3.138 5.341-14.44-2.873-14.432zm275.867 1.883a7.505 7.505 0 00-6.88 4.63 7.5 7.5 0 004.06 9.802l15.307 6.34a7.468 7.468 0 002.865.572 7.5 7.5 0 002.873-14.432l-15.305-6.34a7.46 7.46 0 00-2.92-.572zM84.295 285.826a7.478 7.478 0 00-5.3 2.197l-23.43 23.428c-4.583 4.74-1.263 12.66 5.33 12.715v-.002a7.474 7.474 0 005.275-2.105l23.43-23.43c4.724-4.724 1.377-12.803-5.305-12.803zm210.885.024c-6.681 0-10.029 8.077-5.305 12.802l23.43 23.43a7.478 7.478 0 005.297 2.174c6.658-.015 9.997-8.053 5.308-12.781l-23.428-23.43a7.474 7.474 0 00-5.302-2.195zm-162.514 32.31a7.503 7.503 0 00-6.932 4.631l-6.34 15.307a7.5 7.5 0 004.06 9.798c.925.386 1.918.582 2.921.575v.002a7.503 7.503 0 006.875-4.635l6.342-15.307c2.045-4.937-1.582-10.368-6.926-10.37zm114.135 0c-5.345.001-8.973 5.434-6.926 10.371l6.34 15.307a7.505 7.505 0 006.883 4.674c5.393.046 9.07-5.445 6.974-10.414l-6.34-15.305a7.501 7.501 0 00-6.931-4.633zm-57.069 11.352a7.5 7.5 0 00-7.5 7.5v33.134a7.5 7.5 0 1015 0v-33.134a7.5 7.5 0 00-7.5-7.5z" fill="#ffc300"/>
</svg>