<svg xmlns="http://www.w3.org/2000/svg" viewBox="0 0 60 50">
  <g data-name="Spaceship">
    <path d="M52 43l-1.33 2L48 49H12l-2.67-4L8 43z" fill="#ff9811"/>
    <path d="M52 43l-1.33 2H9.33L8 43z" fill="#ee8700"/>
    <path d="M59 39v4H1v-4a6 6 0 016-6h46a6 6 0 016 6z" fill="#ff9811"/>
    <path d="M52 23v4H8v-4a22 22 0 0144 0z" fill="#5aaae7"/>
    <g fill="#e6e7e8" transform="translate(-2 -9)">
      <circle r="2" cy="47" cx="45"/>
      <circle r="2" cy="47" cx="32"/>
      <circle r="2" cy="47" cx="19"/>
    </g>
    <path d="M52 27v6H8v-6h28z" fill="#ee8700"/>
    <path d="M36 25v2H24v-2l2-4h8zM36 10.5V15h-3v-4.5a1.5 1.5 0 013 0z" fill="#898890"/>
    <path d="M26 21h-2a2.006 2.006 0 01-2-2v-2a2.006 2.006 0 012-2h12a2.006 2.006 0 012 2v2a2.006 2.006 0 01-2 2z" fill="#acabb1"/>
    <path d="M27 10.5V15h-3v-4.5a1.5 1.5 0 013 0z" fill="#898890"/>
    <path d="M25 17h2v2h-2zM33 17h2v2h-2z"/>
    <path d="M53 32v-9a23 23 0 00-46 0v9a7.008 7.008 0 00-7 7v4a1 1 0 001 1h6.465l3.7 5.555A1 1 0 0012 50h36a1 1 0 00.832-.445L52.535 44H59a1 1 0 001-1v-4a7.008 7.008 0 00-7-7zM30 2a21.024 21.024 0 0121 21v3H37v-1a1 1 0 00-.1-.447L35.618 22H36a3 3 0 003-3v-2a3 3 0 00-2-2.816V10.5a2.5 2.5 0 00-5 0V14h-4v-3.5a2.5 2.5 0 00-5 0v3.684A3 3 0 0021 17v2a3 3 0 003 3h.382l-1.277 2.553A1 1 0 0023 25v1H9v-3A21.024 21.024 0 0130 2zm-4 12h-1v-3.5a.5.5 0 011 0zm-2 2h12a1 1 0 011 1v2a1 1 0 01-1 1H24a1 1 0 01-1-1v-2a1 1 0 011-1zm11-2h-1v-3.5a.5.5 0 011 0zm-8.382 8h6.764L35 25.236V26H25v-.764zM9 28h42v4H9zm38.465 20h-34.93l-2.667-4h40.264zM58 42H2v-3a5.006 5.006 0 015-5h46a5.006 5.006 0 015 5z"/>
    <path d="M30 35a3 3 0 103 3 3 3 0 00-3-3zm0 4a1 1 0 111-1 1 1 0 01-1 1zM43 35a3 3 0 103 3 3 3 0 00-3-3zm0 4a1 1 0 111-1 1 1 0 01-1 1zM17 35a3 3 0 103 3 3 3 0 00-3-3zm0 4a1 1 0 111-1 1 1 0 01-1 1z"/>
  </g>
</svg>
