<svg xmlns="http://www.w3.org/2000/svg" viewBox="0 0 512 512">
  <path d="M413.383 124.25h-69.405c-5.271-26.621-19.277-50.899-39.89-68.921a123.354 123.354 0 00-81.221-30.479C154.787 24.85 99.4 80.236 99.4 148.316v9.066H82.05C36.808 157.383 0 194.19 0 239.434c0 45.242 36.808 82.05 82.05 82.05h29.551c4.143 0 7.5-3.357 7.5-7.5s-3.357-7.5-7.5-7.5H82.05c-36.972 0-67.05-30.078-67.05-67.05s30.078-67.051 67.05-67.051h74.55c4.143 0 7.5-3.357 7.5-7.5s-3.357-7.5-7.5-7.5h-42.2v-9.066c0-59.809 48.658-108.467 108.467-108.467 53.565 0 99.677 39.881 107.333 92.795a108.882 108.882 0 011.133 15.671c0 10.555-1.511 20.983-4.491 30.995a7.5 7.5 0 1014.378 4.279 123.554 123.554 0 004.775-44.34h67.389c46.106 0 83.617 37.511 83.617 83.617s-37.511 83.616-83.617 83.616H141.6c-4.143 0-7.5 3.357-7.5 7.5s3.357 7.5 7.5 7.5h271.783c54.378 0 98.617-44.239 98.617-98.616 0-54.378-44.239-98.617-98.617-98.617zM90.333 404.316c-13.271 0-24.066-10.796-24.066-24.066 0-2.889.526-5.747 1.565-8.496.137-.362.302-.713.493-1.05l15.485-27.288a7.499 7.499 0 0113.044-.001l15.486 27.288c.191.337.356.688.493 1.051a23.952 23.952 0 011.565 8.496c.002 13.271-10.794 24.066-24.065 24.066zm-8.634-26.788a8.918 8.918 0 00-.433 2.722c0 4.999 4.067 9.066 9.066 9.066 5 0 9.067-4.067 9.067-9.066 0-.911-.146-1.824-.433-2.722l-8.635-15.216zM173.167 487.15c-13.271 0-24.067-10.797-24.067-24.067 0-2.888.526-5.745 1.564-8.495a7.75 7.75 0 01.494-1.052l15.486-27.288a7.5 7.5 0 0113.044.001l15.485 27.288c.191.337.356.688.494 1.051a23.976 23.976 0 011.564 8.495c.002 13.271-10.793 24.067-24.064 24.067zm-8.635-26.789a8.923 8.923 0 00-.433 2.722c0 5 4.067 9.067 9.067 9.067 4.999 0 9.066-4.067 9.066-9.067 0-.91-.146-1.824-.433-2.723l-8.634-15.215zM338.833 487.15c-13.271 0-24.066-10.797-24.066-24.067 0-2.888.526-5.745 1.564-8.495.138-.362.303-.714.494-1.051l15.485-27.288a7.499 7.499 0 0113.044-.001l15.486 27.288c.191.338.356.689.494 1.052a23.976 23.976 0 011.564 8.495c.002 13.271-10.794 24.067-24.065 24.067zm-8.634-26.79a8.934 8.934 0 00-.433 2.723c0 5 4.067 9.067 9.066 9.067 5 0 9.067-4.067 9.067-9.067 0-.91-.146-1.824-.433-2.722l-8.635-15.216zM421.667 404.316c-13.271 0-24.067-10.796-24.067-24.066 0-2.889.526-5.747 1.565-8.496a7.56 7.56 0 01.493-1.051l15.486-27.288a7.5 7.5 0 0113.044.001l15.485 27.288c.191.337.356.688.493 1.05a23.952 23.952 0 011.565 8.496c.002 13.271-10.793 24.066-24.064 24.066zm-8.635-26.788a8.918 8.918 0 00-.433 2.722c0 4.999 4.067 9.066 9.067 9.066 4.999 0 9.066-4.067 9.066-9.066 0-.911-.146-1.824-.433-2.722l-8.634-15.216zM256 404.316c-13.271 0-24.066-10.796-24.066-24.066 0-2.889.526-5.747 1.565-8.496.137-.362.302-.713.493-1.05l15.485-27.288a7.497 7.497 0 0113.044 0l15.485 27.288c.191.337.356.688.493 1.05a23.952 23.952 0 011.565 8.496c.002 13.271-10.793 24.066-24.064 24.066zm-8.634-26.788a8.918 8.918 0 00-.433 2.722c0 4.999 4.067 9.066 9.066 9.066s9.066-4.067 9.066-9.066c0-.911-.146-1.824-.433-2.722L256 362.313z"/>
</svg>
