<svg xmlns="http://www.w3.org/2000/svg" viewBox="0 0 512 512">
  <path d="M256 81.267c13.27 0 24.066-10.796 24.066-24.066V24.066C280.066 10.796 269.27 0 256 0c-13.271 0-24.067 10.796-24.067 24.066V57.2c0 13.271 10.796 24.067 24.067 24.067zm-9.067-57.201C246.933 19.067 251 15 256 15c4.999 0 9.066 4.067 9.066 9.066V57.2c0 4.999-4.067 9.066-9.066 9.066-5 0-9.067-4.067-9.067-9.066zM256 430.733c-13.271 0-24.067 10.796-24.067 24.066v33.134C231.933 501.204 242.729 512 256 512c13.27 0 24.066-10.796 24.066-24.066V454.8c0-13.271-10.796-24.067-24.066-24.067zm9.066 57.201c0 4.999-4.067 9.066-9.066 9.066-5 0-9.067-4.067-9.067-9.066V454.8c0-4.999 4.067-9.066 9.067-9.066 4.999 0 9.066 4.067 9.066 9.066zM487.934 231.934H454.8c-13.271 0-24.066 10.796-24.066 24.066 0 13.271 10.796 24.066 24.066 24.066h33.134c13.27 0 24.066-10.795 24.066-24.066 0-13.27-10.796-24.066-24.066-24.066zm0 33.132H454.8c-4.999 0-9.066-4.067-9.066-9.066s4.067-9.066 9.066-9.066h33.134c4.999 0 9.066 4.067 9.066 9.066s-4.067 9.066-9.066 9.066zM81.267 256c0-13.27-10.796-24.066-24.066-24.066H24.067C10.796 231.934 0 242.73 0 256c0 13.271 10.796 24.066 24.067 24.066H57.2c13.27 0 24.067-10.795 24.067-24.066zM15 256c0-4.999 4.067-9.066 9.067-9.066H57.2c4.999 0 9.066 4.067 9.066 9.066s-4.067 9.066-9.066 9.066H24.067c-5 0-9.067-4.067-9.067-9.066zM256 99.4c-36.294 0-71.672 12.7-99.615 35.763a7.499 7.499 0 00-1.01 10.558 7.5 7.5 0 0010.558 1.011C191.195 125.883 223.182 114.4 256 114.4c78.078 0 141.6 63.522 141.6 141.6S334.078 397.6 256 397.6c-78.079 0-141.6-63.522-141.6-141.6 0-32.389 11.215-64.049 31.58-89.148a7.5 7.5 0 10-11.649-9.451C111.805 185.165 99.4 220.181 99.4 256c0 86.35 70.25 156.6 156.6 156.6S412.6 342.35 412.6 256 342.35 99.4 256 99.4zM396.573 139.482c6.162 0 12.325-2.346 17.018-7.037l23.429-23.429c9.383-9.384 9.383-24.652 0-34.036-9.384-9.383-24.65-9.383-34.036 0l-23.429 23.429c-9.383 9.384-9.383 24.652 0 34.036 4.692 4.692 10.855 7.037 17.018 7.037zm-6.411-30.465l23.429-23.429a9.036 9.036 0 016.41-2.651 9.04 9.04 0 016.411 2.651c3.535 3.534 3.535 9.287 0 12.821l-23.429 23.429c-3.535 3.536-9.286 3.534-12.821 0s-3.535-9.287 0-12.821zM98.41 379.555l-23.429 23.429c-9.384 9.384-9.384 24.652-.001 34.035a23.907 23.907 0 0017.018 7.05 23.914 23.914 0 0017.018-7.049l23.429-23.429c9.384-9.384 9.384-24.652 0-34.036-9.384-9.383-24.652-9.383-34.035 0zm23.428 23.428L98.41 426.412c-1.712 1.713-3.989 2.656-6.411 2.656s-4.699-.943-6.411-2.656c-3.535-3.534-3.535-9.287 0-12.821l23.429-23.429c1.768-1.768 4.089-2.651 6.411-2.651s4.644.884 6.411 2.651c3.534 3.534 3.534 9.287-.001 12.821zM413.591 379.555c-9.386-9.383-24.652-9.382-34.036 0-9.383 9.384-9.383 24.652 0 34.036l23.429 23.429c4.692 4.691 10.855 7.037 17.018 7.037s12.326-2.346 17.018-7.037c9.383-9.384 9.383-24.652 0-34.036zm12.821 46.857c-3.535 3.534-9.286 3.536-12.821 0l-23.429-23.429c-3.535-3.534-3.535-9.287 0-12.821a9.036 9.036 0 016.411-2.651c2.321 0 4.643.884 6.41 2.651l23.429 23.429c3.535 3.534 3.535 9.287 0 12.821zM98.41 132.445c4.692 4.691 10.854 7.037 17.017 7.037s12.326-2.346 17.018-7.037c9.384-9.384 9.384-24.652 0-34.036L109.016 74.98c-4.545-4.545-10.589-7.049-17.018-7.049s-12.473 2.504-17.017 7.049c-9.384 9.384-9.384 24.652 0 34.036zM85.588 85.587c1.712-1.712 3.989-2.655 6.411-2.655s4.699.943 6.411 2.656l23.429 23.429c3.535 3.534 3.535 9.287 0 12.821-3.535 3.535-9.287 3.535-12.822 0l-23.43-23.429c-3.535-3.534-3.535-9.287.001-12.822zM172.995 75.211a7.501 7.501 0 006.932 4.632 7.5 7.5 0 006.926-10.372l-6.34-15.306a7.5 7.5 0 10-13.858 5.74zM339.008 436.806a7.499 7.499 0 00-9.799-4.059 7.499 7.499 0 00-4.059 9.799l6.34 15.306a7.5 7.5 0 1013.858-5.74zM54.17 180.531l15.306 6.34c.938.39 1.911.573 2.867.573a7.503 7.503 0 002.873-14.431l-15.306-6.34c-3.826-1.589-8.214.232-9.799 4.059a7.5 7.5 0 004.059 9.799zM457.856 331.509l-15.306-6.34c-3.824-1.587-8.213.232-9.799 4.059s.231 8.214 4.058 9.799l15.306 6.34a7.45 7.45 0 002.867.573 7.504 7.504 0 006.932-4.632 7.496 7.496 0 00-4.058-9.799zM79.292 329.228a7.501 7.501 0 00-9.799-4.059l-15.306 6.34a7.5 7.5 0 105.74 13.858l15.306-6.34a7.5 7.5 0 004.059-9.799zM432.769 182.813a7.5 7.5 0 009.799 4.059l15.306-6.34a7.5 7.5 0 00-5.74-13.858l-15.306 6.34a7.498 7.498 0 00-4.059 9.799zM182.834 432.747a7.496 7.496 0 00-9.799 4.059l-6.34 15.306a7.5 7.5 0 1013.858 5.74l6.34-15.306a7.5 7.5 0 00-4.059-9.799zM329.249 79.27c.939.39 1.91.573 2.867.573a7.504 7.504 0 006.932-4.632l6.34-15.306a7.498 7.498 0 00-4.059-9.799c-3.823-1.587-8.213.233-9.799 4.059l-6.34 15.306a7.499 7.499 0 004.059 9.799z"/>
</svg>
