<svg xmlns="http://www.w3.org/2000/svg" viewBox="0 0 512 512">
  <path d="M413.383 124.25h-69.405c-5.271-26.621-19.277-50.899-39.89-68.921a123.354 123.354 0 00-81.221-30.479C154.787 24.85 99.4 80.236 99.4 148.316v9.066H82.05C36.808 157.383 0 194.19 0 239.434c0 45.242 36.808 82.05 82.05 82.05h29.55c4.143 0 7.5-3.357 7.5-7.5s-3.357-7.5-7.5-7.5H82.05c-36.972 0-67.05-30.078-67.05-67.05s30.078-67.051 67.05-67.051h74.55c4.143 0 7.5-3.357 7.5-7.5s-3.357-7.5-7.5-7.5h-42.2v-9.066c0-59.809 48.658-108.467 108.467-108.467 53.622 0 99.776 39.965 107.358 92.963.005.032.013.063.018.095h-.002a108.938 108.938 0 011.091 15.409c0 10.555-1.511 20.983-4.491 30.995a7.5 7.5 0 1014.378 4.279 123.554 123.554 0 004.774-44.34h67.39c46.106 0 83.617 37.511 83.617 83.617s-37.511 83.616-83.617 83.616H294.017l7.8-23.4.001-.004 9.288-27.862H355.4c4.143 0 7.5-3.357 7.5-7.5s-3.357-7.5-7.5-7.5H156.6c-4.143 0-7.5 3.357-7.5 7.5s3.357 7.5 7.5 7.5h31.216l-16.021 51.267H141.6c-4.143 0-7.5 3.357-7.5 7.5s3.357 7.5 7.5 7.5h25.507l-17.666 56.529a7.5 7.5 0 007.158 9.738h73.229l-22.521 90.081a7.5 7.5 0 0012.749 6.949l124.25-132.533a7.502 7.502 0 00-5.472-12.63h-55.861l6.045-18.134h124.366c54.378 0 98.617-44.239 98.617-98.616-.001-54.38-44.24-98.619-98.618-98.619zm-91.862 230.367l-92.658 98.835 17.847-71.383a7.5 7.5 0 00-7.276-9.32h-72.633l17.65-56.481a3.47 3.47 0 00.034-.109l19.045-60.944h91.764l-6.044 18.133h-49.816c-4.143 0-7.5 3.357-7.5 7.5s3.357 7.5 7.5 7.5h44.816l-7.799 23.398a.019.019 0 00-.002.007l-10.997 32.99a7.5 7.5 0 007.115 9.872h48.954z"/>
</svg>
